<svg id="SVGRoot" version="1.1" viewBox="0 0 63.545 63.545" xmlns="http://www.w3.org/2000/svg">
  <defs id="defs815">
    <marker id="marker4755" style="overflow:visible" orient="auto">
      <path id="path4753" transform="matrix(-.2 0 0 -.2 -1.2 0)" d="m0 0 5-5-17.5 5 17.5 5z" style="fill-rule:evenodd;fill:#61dafb;stroke-width:1pt;stroke:#61dafb"/>
    </marker>
    <marker id="marker4369" style="overflow:visible" orient="auto">
      <path id="path4367" transform="matrix(-.3 0 0 -.3 .69 0)" d="m8.7186 4.0337-10.926-4.0177 10.926-4.0177c-1.7455 2.3721-1.7354 5.6175-6e-7 8.0354z" style="fill-rule:evenodd;fill:#61dafb;stroke-linejoin:round;stroke-width:.625;stroke:#61dafb"/>
    </marker>
    <marker id="marker4359" style="overflow:visible" orient="auto">
      <path id="path4357" transform="matrix(-.3 0 0 -.3 .69 0)" d="m8.7186 4.0337-10.926-4.0177 10.926-4.0177c-1.7455 2.3721-1.7354 5.6175-6e-7 8.0354z" style="fill-rule:evenodd;fill:#61dafb;stroke-linejoin:round;stroke-width:.625;stroke:#61dafb"/>
    </marker>
    <marker id="marker4349" style="overflow:visible" orient="auto">
      <path id="path4347" transform="matrix(-.3 0 0 -.3 .69 0)" d="m8.7186 4.0337-10.926-4.0177 10.926-4.0177c-1.7455 2.3721-1.7354 5.6175-6e-7 8.0354z" style="fill-rule:evenodd;fill:#61dafb;stroke-linejoin:round;stroke-width:.625;stroke:#61dafb"/>
    </marker>
    <marker id="marker4339" style="overflow:visible" orient="auto">
      <path id="path4337" transform="matrix(-.3 0 0 -.3 .69 0)" d="m8.7186 4.0337-10.926-4.0177 10.926-4.0177c-1.7455 2.3721-1.7354 5.6175-6e-7 8.0354z" style="fill-rule:evenodd;fill:#61dafb;stroke-linejoin:round;stroke-width:.625;stroke:#61dafb"/>
    </marker>
    <marker id="marker4329" style="overflow:visible" orient="auto">
      <path id="path4327" transform="matrix(-.3 0 0 -.3 .69 0)" d="m8.7186 4.0337-10.926-4.0177 10.926-4.0177c-1.7455 2.3721-1.7354 5.6175-6e-7 8.0354z" style="fill-rule:evenodd;fill:#61dafb;stroke-linejoin:round;stroke-width:.625;stroke:#61dafb"/>
    </marker>
    <marker id="marker4319" style="overflow:visible" orient="auto">
      <path id="path4317" transform="matrix(-.3 0 0 -.3 .69 0)" d="m8.7186 4.0337-10.926-4.0177 10.926-4.0177c-1.7455 2.3721-1.7354 5.6175-6e-7 8.0354z" style="fill-rule:evenodd;fill:#61dafb;stroke-linejoin:round;stroke-width:.625;stroke:#61dafb"/>
    </marker>
    <marker id="marker4309" style="overflow:visible" orient="auto">
      <path id="path4307" transform="matrix(-.3 0 0 -.3 .69 0)" d="m8.7186 4.0337-10.926-4.0177 10.926-4.0177c-1.7455 2.3721-1.7354 5.6175-6e-7 8.0354z" style="fill-rule:evenodd;fill:#61dafb;stroke-linejoin:round;stroke-width:.625;stroke:#61dafb"/>
    </marker>
    <marker id="marker4299" style="overflow:visible" orient="auto">
      <path id="path4297" transform="matrix(-.3 0 0 -.3 .69 0)" d="m8.7186 4.0337-10.926-4.0177 10.926-4.0177c-1.7455 2.3721-1.7354 5.6175-6e-7 8.0354z" style="fill-rule:evenodd;fill:#61dafb;stroke-linejoin:round;stroke-width:.625;stroke:#61dafb"/>
    </marker>
    <marker id="marker4289" style="overflow:visible" orient="auto">
      <path id="path4287" transform="matrix(-.3 0 0 -.3 .69 0)" d="m8.7186 4.0337-10.926-4.0177 10.926-4.0177c-1.7455 2.3721-1.7354 5.6175-6e-7 8.0354z" style="fill-rule:evenodd;fill:#61dafb;stroke-linejoin:round;stroke-width:.625;stroke:#61dafb"/>
    </marker>
    <marker id="marker4279" style="overflow:visible" orient="auto">
      <path id="path4277" transform="matrix(-.3 0 0 -.3 .69 0)" d="m8.7186 4.0337-10.926-4.0177 10.926-4.0177c-1.7455 2.3721-1.7354 5.6175-6e-7 8.0354z" style="fill-rule:evenodd;fill:#61dafb;stroke-linejoin:round;stroke-width:.625;stroke:#61dafb"/>
    </marker>
    <marker id="marker4269" style="overflow:visible" orient="auto">
      <path id="path4267" transform="matrix(-.3 0 0 -.3 .69 0)" d="m8.7186 4.0337-10.926-4.0177 10.926-4.0177c-1.7455 2.3721-1.7354 5.6175-6e-7 8.0354z" style="fill-rule:evenodd;fill:#61dafb;stroke-linejoin:round;stroke-width:.625;stroke:#61dafb"/>
    </marker>
  </defs>
  <g id="layer1" transform="translate(-1.2276 -.72757)">
    <rect id="rect2388" x="1.2276" y=".72757" width="63.545" height="63.545" style="fill:#212121;paint-order:normal"/>
  </g>
  <g id="g2386" transform="translate(-1.2276 -.72757)">
    <path id="path1746" d="m33 32.5v-28.75" style="fill:none;marker-end:url(#marker4369);paint-order:normal;stroke-width:1px;stroke:#61dafb"/>
    <path id="path1762" d="m33 32.5v28.75" style="fill:none;marker-end:url(#marker4755);paint-order:normal;stroke-width:1px;stroke:#61dafb"/>
    <path id="path1800" d="m33 32.5 24.654-14.234" style="fill:none;marker-end:url(#marker4269);paint-order:normal;stroke-width:1px;stroke:#61dafb"/>
    <path id="path1826" d="m33 32.5 24.841 14.342" style="fill:none;marker-end:url(#marker4279);paint-order:normal;stroke-width:1px;stroke:#61dafb"/>
    <path id="path1860" d="m33 32.5-25.029-14.45" style="fill:none;marker-end:url(#marker4289);paint-order:normal;stroke-width:1px;stroke:#61dafb"/>
    <path id="path1896" d="m33 32.5-24.733 14.28" style="fill:none;marker-end:url(#marker4299);paint-order:normal;stroke-width:1px;stroke:#61dafb"/>
    <path id="path1938" d="m33 32.5-8.1872 14.181" style="fill:none;marker-end:url(#marker4309);paint-order:normal;stroke-width:1.002;stroke:#61dafb"/>
    <path id="path1978" d="m33 32.5 8.1247 14.072" style="fill:none;marker-end:url(#marker4319);paint-order:normal;stroke-width:1px;stroke:#61dafb"/>
    <path id="path2022" d="m33 32.5h-16.5" style="fill:none;marker-end:url(#marker4329);paint-order:normal;stroke-width:1px;stroke:#61dafb"/>
    <path id="path2066" d="m33 32.5-8.4494-14.635" style="fill:none;marker-end:url(#marker4339);paint-order:normal;stroke-width:1px;stroke:#61dafb"/>
    <path id="path2114" d="m33 32.5 8.1704-14.152" style="fill:none;marker-end:url(#marker4349);paint-order:normal;stroke-width:1px;stroke:#61dafb"/>
    <path id="path2162" d="m33 32.5h16.25" style="fill:none;marker-end:url(#marker4359);paint-order:normal;stroke-width:1px;stroke:#61dafb"/>
  </g>
</svg>
